<svg xmlns="http://www.w3.org/2000/svg" viewBox="0 0 313.81 79.76"><defs><style>.cls-1{fill:#fefefe;opacity:0.9;}.cls-2{fill:#faa80d;}</style></defs><title>Asset 1</title><g id="Layer_2" data-name="Layer 2"><g id="Layer_1-2" data-name="Layer 1"><path class="cls-1" d="M39.49,21.5c-.79-5.73-5.25-8.76-11.46-8.76-9.56,0-13.22,8.44-13.22,16.88S18.47,46.5,28,46.5c6.93,0,10.91-4,11.46-10.51H54.3c-.79,14.66-11.54,23.25-25.95,23.25C11.15,59.24,0,46.1,0,29.62S11.15,0,28.35,0C40.61,0,53.91,7.8,54.3,21.5Z"/><path class="cls-1" d="M145.74,45.23c-.47-5.42-2.23-12.19-8.28-13.62v-.15c6-2.32,8.92-8.13,8.92-14.26,0-11.47-9.87-16-19.91-16H103.29A31.71,31.71,0,0,1,112,13.06h12c4.14,0,7.48,1.91,7.48,6.13s-2.39,6.69-6.85,6.69l-9.56,0c.09,1.21.14,2.45.14,3.7a45.63,45.63,0,0,1-.67,7.76l8.9,0c6.93,0,7.88,5.89,8.28,11.62.16,1.59.4,7.17,1.67,9.08h14.65c-2-2.07-2.23-10.43-2.39-12.82"/><path class="cls-1" d="M84,0c17.92,0,28,13.14,28,29.62S102,59.24,84,59.24,56,46.1,56,29.62,66.12,0,84,0m0,46.5c9.56,0,13.22-8.44,13.22-16.88S93.6,12.74,84,12.74,70.82,21.18,70.82,29.62,74.49,46.5,84,46.5"/><polygon class="cls-1" points="153.61 1.2 198.92 1.2 198.92 13.06 168.42 13.06 168.42 23.02 196.29 23.02 196.29 34.48 168.42 34.48 168.42 45.31 199.72 45.31 199.72 58.05 153.61 58.05 153.61 1.2"/><path class="cls-2" d="M153.74,77.27a6.55,6.55,0,0,0,3.31.94c1.89,0,3-1,3-2.44s-.76-2.1-2.69-2.85c-2.34-.83-3.78-2-3.78-4,0-2.23,1.84-3.89,4.63-3.89a6.52,6.52,0,0,1,3.16.7l-.51,1.51a5.76,5.76,0,0,0-2.72-.68c-1.95,0-2.69,1.17-2.69,2.15,0,1.33.87,2,2.84,2.76,2.42.93,3.65,2.1,3.65,4.2s-1.63,4.14-5,4.14a7.39,7.39,0,0,1-3.65-.94Z"/><path class="cls-2" d="M184,72.22c0,4.93-3,7.54-6.65,7.54s-6.43-2.93-6.43-7.26c0-4.54,2.82-7.52,6.64-7.52S184,68,184,72.22m-11.11.24c0,3.05,1.66,5.79,4.57,5.79s4.58-2.7,4.58-5.94c0-2.85-1.49-5.82-4.56-5.82s-4.59,2.82-4.59,6"/><polygon class="cls-2" points="193.74 65.22 195.59 65.22 195.59 77.98 201.71 77.98 201.71 79.52 193.74 79.52 193.74 65.22"/><path class="cls-2" d="M212.17,65.22v8.47c0,3.2,1.43,4.56,3.34,4.56,2.12,0,3.48-1.4,3.48-4.56V65.22h1.87v8.34c0,4.39-2.32,6.2-5.42,6.2-2.93,0-5.14-1.68-5.14-6.12V65.22Z"/><polygon class="cls-2" points="234.11 66.79 229.76 66.79 229.76 65.22 240.35 65.22 240.35 66.79 235.98 66.79 235.98 79.52 234.11 79.52 234.11 66.79"/><rect class="cls-2" x="249.27" y="65.22" width="1.85" height="14.31"/><path class="cls-2" d="M273.9,72.22c0,4.93-3,7.54-6.64,7.54s-6.44-2.93-6.44-7.26c0-4.54,2.83-7.52,6.65-7.52s6.43,3,6.43,7.24m-11.1.24c0,3.05,1.65,5.79,4.56,5.79s4.59-2.7,4.59-5.94c0-2.85-1.49-5.82-4.57-5.82s-4.58,2.82-4.58,6"/><path class="cls-2" d="M283.63,79.52V65.22h2l4.58,7.24a40.59,40.59,0,0,1,2.57,4.64l0,0c-.17-1.91-.21-3.65-.21-5.88v-6h1.74v14.3H292.5L288,72.26a46.26,46.26,0,0,1-2.68-4.77l-.06,0c.11,1.8.15,3.52.15,5.9v6.11Z"/><path class="cls-2" d="M304.67,77.27a6.55,6.55,0,0,0,3.31.94c1.89,0,3-1,3-2.44s-.77-2.1-2.7-2.85c-2.33-.83-3.78-2-3.78-4,0-2.23,1.85-3.89,4.63-3.89a6.52,6.52,0,0,1,3.16.7l-.51,1.51a5.72,5.72,0,0,0-2.72-.68c-1.95,0-2.69,1.17-2.69,2.15,0,1.33.87,2,2.84,2.76,2.42.93,3.65,2.1,3.65,4.2s-1.63,4.14-5,4.14a7.32,7.32,0,0,1-3.64-.94Z"/><polygon class="cls-2" points="205.49 58.05 205.49 1.42 223.12 1.42 223.12 20.53 239.78 20.53 239.78 1.42 257.41 1.42 257.41 58.05 239.78 58.05 239.78 36.11 223.12 36.11 223.12 58.05 205.49 58.05"/><path class="cls-2" d="M280.27,38.31V58.05H262.64V1.42H288c17.93,0,23.83,5.11,23.83,16.12,0,6.53-2.77,12-9,13.85,5.68,2.2,9.11,3.61,9.11,15,0,7.39-.22,9.91,1.87,9.91v1.73H296c-.45-1.26-.9-4.88-.9-9.91,0-7.39-1.2-9.83-9.41-9.83Zm0-12.43h7c5.45,0,8.36-1.42,8.36-5.35s-3-5.9-7.09-5.9h-8.22Z"/></g></g></svg>