<?xml version="1.0" encoding="UTF-8"?>
<svg width="424px" height="340px" viewBox="0 0 424 340" version="1.1" xmlns="http://www.w3.org/2000/svg" xmlns:xlink="http://www.w3.org/1999/xlink">
    <!-- Generator: Sketch 53 (72520) - https://sketchapp.com -->
    <title>network</title>
    <desc>Created with Sketch.</desc>
    <g id="Page-1" stroke="none" stroke-width="1" fill="none" fill-rule="evenodd">
        <g id="network" fill="#FFFFFF" fill-rule="nonzero">
            <path d="M212,84.56 C165.12,84.56 136,108.56 136,147.44 C136,151.858 139.582,155.44 144,155.44 L280,155.44 C284.418,155.44 288,151.858 288,147.44 C288,108.64 258.88,84.56 212,84.56 Z M152.56,139.44 C157.84,103.52 198.88,100.56 212,100.56 C225.12,100.56 266.16,103.52 271.44,139.44 L152.56,139.44 Z" id="Shape"></path>
            <path d="M212,0.56 C191.013,0.56 174,17.573 174,38.56 C174.044,59.529 191.031,76.516 212,76.56 C232.987,76.56 250,59.547 250,38.56 C250,17.573 232.987,0.56 212,0.56 Z M212,60.56 C199.85,60.56 190,50.71 190,38.56 C190,26.41 199.85,16.56 212,16.56 C224.15,16.56 234,26.41 234,38.56 C234,50.71 224.15,60.56 212,60.56 Z" id="Shape"></path>
            <path d="M76,268.56 C29.12,268.56 0,292.56 0,331.44 C0,335.858 3.582,339.44 8,339.44 L144,339.44 C148.418,339.44 152,335.858 152,331.44 C152,292.64 122.88,268.56 76,268.56 Z M16.56,323.44 C21.84,287.52 62.8,284.56 76,284.56 C89.2,284.56 130.16,287.52 135.44,323.44 L16.56,323.44 Z" id="Shape"></path>
            <path d="M76,184.56 C55.013,184.56 38,201.573 38,222.56 C38.044,243.529 55.031,260.516 76,260.56 C96.987,260.56 114,243.547 114,222.56 C114,201.573 96.987,184.56 76,184.56 Z M76,244.56 C63.85,244.56 54,234.71 54,222.56 C54,210.41 63.85,200.56 76,200.56 C88.15,200.56 98,210.41 98,222.56 C98,234.71 88.15,244.56 76,244.56 Z" id="Shape"></path>
            <path d="M348,268.56 C301.12,268.56 272,292.56 272,331.44 C272,335.858 275.582,339.44 280,339.44 L416,339.44 C420.418,339.44 424,335.858 424,331.44 C424,292.64 394.88,268.56 348,268.56 Z M288.56,323.44 C293.84,287.52 334.8,284.56 348,284.56 C361.2,284.56 402.16,287.52 407.44,323.44 L288.56,323.44 Z" id="Shape"></path>
            <path d="M348,184.56 C327.013,184.56 310,201.573 310,222.56 C310.044,243.529 327.031,260.516 348,260.56 C368.987,260.56 386,243.547 386,222.56 C386,201.573 368.987,184.56 348,184.56 Z M348,244.56 C335.85,244.56 326,234.71 326,222.56 C326,210.41 335.85,200.56 348,200.56 C360.15,200.56 370,210.41 370,222.56 C370,234.71 360.15,244.56 348,244.56 Z" id="Shape"></path>
            <path d="M253.36,254.72 L220,221.2 L220,174 C220,169.582 216.418,166 212,166 C207.582,166 204,169.582 204,174 L204,221.2 L170.64,254.56 C167.481,257.675 167.445,262.761 170.56,265.92 C173.675,269.079 178.761,269.115 181.92,266 L212,235.84 L242.08,266 C245.436,268.874 250.486,268.483 253.36,265.127 C255.925,262.132 255.925,257.715 253.36,254.72 Z" id="Path"></path>
        </g>
    </g>
</svg>