<?xml version="1.0" encoding="UTF-8"?>
<svg width="372px" height="328px" viewBox="0 0 372 328" version="1.1" xmlns="http://www.w3.org/2000/svg" xmlns:xlink="http://www.w3.org/1999/xlink">
    <!-- Generator: Sketch 53 (72520) - https://sketchapp.com -->
    <title>suitcase</title>
    <desc>Created with Sketch.</desc>
    <g id="Page-1" stroke="none" stroke-width="1" fill="none" fill-rule="evenodd">
        <g id="suitcase" fill="#FFFFFF" fill-rule="nonzero">
            <path d="M320,55.48 L253.12,55.48 L253.12,16.52 C253.12,7.683 245.957,0.52 237.12,0.52 L134.8,0.52 C125.963,0.52 118.8,7.683 118.8,16.52 L118.8,55.48 L52,55.48 C28,55.48 0,68.6 0,105.56 L0,277.4 C0,314.36 28,327.48 52,327.48 L320,327.48 C358.4,327.48 372,300.52 372,277.4 L372,105.64 C372,68.6 344,55.48 320,55.48 Z M134.88,16.6 L237.12,16.52 L237.12,55.48 L134.88,55.48 L134.88,16.6 Z M320,311.4 L52,311.4 C41.2,311.4 16,308.04 16,277.32 L16,220.84 L136,220.84 C135.968,221.426 135.968,222.014 136,222.6 L136,247.32 C135.999,257.129 143.95,265.081 153.758,265.082 C153.839,265.082 153.919,265.081 154,265.08 L178,265.08 L178,281.08 C178,285.498 181.582,289.08 186,289.08 C190.418,289.08 194,285.498 194,281.08 L194,265.08 L218,265.08 C227.809,265.08 235.76,257.129 235.76,247.32 C235.76,247.32 235.76,247.32 235.76,247.32 L235.76,222.6 C235.792,222.014 235.792,221.426 235.76,220.84 L355.76,220.84 L356,277.32 C356,287.56 352.48,311.4 320,311.4 Z M186,227 C181.582,227 178,230.582 178,235 L178,249.08 L154,249.08 C153.028,249.08 152.24,248.292 152.24,247.32 L152.24,222.6 C152.24,221.628 153.028,220.84 154,220.84 L218,220.84 C218.972,220.84 219.76,221.628 219.76,222.6 C219.76,222.6 219.76,222.6 219.76,222.6 L219.76,247.32 C219.76,248.292 218.972,249.08 218,249.08 C218,249.08 218,249.08 218,249.08 L194,249.08 L194,235 C194,230.582 190.418,227 186,227 Z M356,204.84 L16,204.84 L16,105.64 C16,74.84 41.2,71.56 52,71.56 L320,71.56 C330.8,71.56 356,74.84 356,105.64 L356,204.84 Z" id="Shape"></path>
        </g>
    </g>
</svg>