<?xml version="1.0" encoding="UTF-8"?>
<svg width="435px" height="435px" viewBox="0 0 435 435" version="1.1" xmlns="http://www.w3.org/2000/svg" xmlns:xlink="http://www.w3.org/1999/xlink">
    <!-- Generator: Sketch 53 (72520) - https://sketchapp.com -->
    <title>target</title>
    <desc>Created with Sketch.</desc>
    <g id="Page-1" stroke="none" stroke-width="1" fill="none" fill-rule="evenodd">
        <g id="target" fill="#FFFFFF" fill-rule="nonzero">
            <path d="M256.4,217.36 C256.356,195.83 238.89,178.4 217.36,178.4 C195.799,178.4 178.32,195.879 178.32,217.44 C178.32,239.001 195.799,256.48 217.36,256.48 C238.921,256.48 256.4,239.001 256.4,217.44 C256.4,217.413 256.4,217.387 256.4,217.36 Z M217.36,240.4 C217.36,240.4 217.36,240.4 217.36,240.4 C204.635,240.4 194.32,230.085 194.32,217.36 C194.32,204.635 204.635,194.32 217.36,194.32 C230.085,194.32 240.4,204.635 240.4,217.36 C240.4,230.085 230.085,240.4 217.36,240.4 Z" id="Shape"></path>
            <path d="M426.64,209.36 L387.92,209.36 C383.694,121.39 313.33,51.026 225.36,46.8 L225.36,8 C225.36,3.582 221.778,0 217.36,0 C212.942,0 209.36,3.582 209.36,8 L209.36,46.72 C121.361,50.949 50.986,121.359 46.8,209.36 L8,209.36 C3.582,209.36 0,212.942 0,217.36 C0,221.778 3.582,225.36 8,225.36 L46.72,225.36 C50.949,313.359 121.359,383.734 209.36,387.92 L209.36,426.64 C209.36,431.058 212.942,434.64 217.36,434.64 C221.778,434.64 225.36,431.058 225.36,426.64 L225.36,387.92 C313.33,383.694 383.694,313.33 387.92,225.36 L426.64,225.36 C431.058,225.36 434.64,221.778 434.64,217.36 C434.64,212.942 431.058,209.36 426.64,209.36 Z M334,225.36 L371.92,225.36 C367.734,304.504 304.504,367.734 225.36,371.92 L225.36,334 C225.36,329.582 221.778,326 217.36,326 C212.942,326 209.36,329.582 209.36,334 L209.36,371.92 C130.216,367.734 66.986,304.504 62.8,225.36 L100.72,225.36 C105.138,225.36 108.72,221.778 108.72,217.36 C108.72,212.942 105.138,209.36 100.72,209.36 L62.8,209.36 C66.986,130.216 130.216,66.986 209.36,62.8 L209.36,100.72 C209.36,105.138 212.942,108.72 217.36,108.72 C221.778,108.72 225.36,105.138 225.36,100.72 L225.36,62.8 C304.504,66.986 367.734,130.216 371.92,209.36 L334,209.36 C329.582,209.36 326,212.942 326,217.36 C326,221.778 329.582,225.36 334,225.36 Z" id="Shape"></path>
        </g>
    </g>
</svg>